# xmcd
#
# Track frame offsets: 
#        150
#        17098
#        21925
#        38017
#        45498
#        68820
#        77138
#        107168
#        111285
#        128484
#        135443
#        151618
#        168524
#        189109
#        193163
#        210446
#        230466
#        263380
#        269190
#        291467
#        319094
#        351904
#
# Disc length: 4719 seconds
#
# Revision: 0
# Processed by: cddbd v1.5.1PL0 Copyright (c) Steve Scherf et al.
# Submitted via: ExactAudioCopy v0.95a5
#
DISCID=32126d16
DTITLE=Eric Bibb - Commercial Hotel, Insch, Aberdeenshire
DYEAR=1997
DGENRE=Blues
TTITLE0=01 Saucer and Cup
TTITLE1=02 Song Intro
TTITLE2=03 I am Blessed
TTITLE3=04 Song Intro
TTITLE4=05 Nothing like you used to do
TTITLE5=06 Song Intro
TTITLE6=07 Need It Time
TTITLE7=08 Song Intro
TTITLE8=09 Lonesome Valley
TTITLE9=10 Song Intro
TTITLE10=11 Shingle by Shingle
TTITLE11=12 Good Stuff
TTITLE12=13 Between a Woman and a Man
TTITLE13=14 Song Intro
TTITLE14=15 Where Shall I Be
TTITLE15=16 I Need a Vacation
TTITLE16=17 Tell Old Bill
TTITLE17=18 Song Intro
TTITLE18=19 In My Fathers House
TTITLE19=20 Don't Let Anybody Drag Your Spirit Down
TTITLE20=21 Mandela Is Free
TTITLE21=22 Outro
EXTD=
EXTT0=
EXTT1=
EXTT2=
EXTT3=
EXTT4=
EXTT5=
EXTT6=
EXTT7=
EXTT8=
EXTT9=
EXTT10=
EXTT11=
EXTT12=
EXTT13=
EXTT14=
EXTT15=
EXTT16=
EXTT17=
EXTT18=
EXTT19=
EXTT20=
EXTT21=
PLAYORDER=
